<svg width="146" height="166" viewBox="0 0 146 166" fill="none" xmlns="http://www.w3.org/2000/svg">
<path fill-rule="evenodd" clip-rule="evenodd" d="M18.7661 0C8.40185 0 0 8.40185 0 18.7661V147.126C0 157.49 8.40185 165.892 18.7661 165.892H127.234C137.598 165.892 146 157.49 146 147.126V18.7661C146 8.40185 137.598 0 127.234 0H18.7661ZM44.2879 23.2699C33.9237 23.2699 25.5219 31.6718 25.5219 42.036V123.481C25.5219 133.845 33.9237 142.247 44.2879 142.247H102.087C112.452 142.247 120.853 133.845 120.853 123.481V42.036C120.853 31.6718 112.452 23.2699 102.087 23.2699H44.2879Z" fill="white"/>
</svg>
