<svg width="110" height="24" viewBox="0 0 110 24" fill="none" xmlns="http://www.w3.org/2000/svg">
<path d="M0.75 23V0.499998H6.27C11.7 0.499998 16.68 1.67 16.68 7.31C16.68 10.91 14.73 13.22 10.98 14.09L17.58 23H13.38L7.08 14.48H4.35V23H0.75ZM4.35 11.48H7.8C11.16 11.48 13.08 10.16 13.08 7.34C13.08 4.16 10.08 3.5 6.99 3.5H4.35V11.48ZM24.4774 23.48C19.7974 23.48 16.1074 19.97 16.1074 15.5C16.1074 11.03 19.1074 7.52 24.1474 7.52C28.0774 7.52 31.7074 10.19 31.7074 15.38V16.61H19.8274C20.3074 18.86 22.1674 20.48 24.4774 20.48C27.0574 20.48 28.5874 18.83 29.5174 17.69L31.7974 19.4C30.3874 21.86 27.8674 23.48 24.4774 23.48ZM20.0074 13.61H27.8974C27.3574 11.48 25.7674 10.52 24.1174 10.52C22.1374 10.52 20.6074 11.78 20.0074 13.61ZM41.1877 23.48C36.2077 23.48 32.6977 20.18 32.6977 15.5C32.6977 10.82 36.1477 7.52 41.0677 7.52C43.7677 7.52 46.6777 9.02 48.1177 11.15L45.1177 12.83C44.1577 11.48 42.5077 10.52 41.0677 10.52C38.2777 10.52 36.2977 12.59 36.2977 15.5C36.2977 18.41 38.4277 20.48 41.4877 20.48C43.0777 20.48 44.9677 19.31 46.0477 17.66L48.3877 19.4C47.0077 21.8 44.0377 23.48 41.1877 23.48ZM57.5114 23.48C52.8314 23.48 49.1414 19.97 49.1414 15.5C49.1414 11.03 52.8314 7.52 57.5114 7.52C62.1914 7.52 65.8814 11.03 65.8814 15.5C65.8814 19.97 62.1914 23.48 57.5114 23.48ZM57.5114 20.48C60.1814 20.48 62.2814 18.29 62.2814 15.5C62.2814 12.71 60.1814 10.52 57.5114 10.52C54.8414 10.52 52.7414 12.71 52.7414 15.5C52.7414 18.29 54.8414 20.48 57.5114 20.48ZM70.9723 23H67.3723V8H70.9723V10.31C72.2623 8.39 74.2123 7.52 76.0723 7.52C76.3723 7.52 76.6423 7.52 76.9423 7.58V10.58C76.7023 10.52 76.3423 10.46 75.9223 10.46C74.0323 10.46 70.9723 11.42 70.9723 15.74V23ZM86.1265 23.48C81.4465 23.48 77.7565 19.97 77.7565 15.5C77.7565 11.03 81.4465 7.52 86.1265 7.52C87.8965 7.52 89.5465 8.03 90.8965 8.9V0.499998H94.4965V23H90.8965V22.1C89.5465 22.97 87.8965 23.48 86.1265 23.48ZM86.1265 20.48C88.7965 20.48 90.8965 18.29 90.8965 15.5C90.8965 12.71 88.7965 10.52 86.1265 10.52C83.4565 10.52 81.3565 12.71 81.3565 15.5C81.3565 18.29 83.4565 20.48 86.1265 20.48ZM103.493 23.48C100.673 23.48 97.6127 22.28 96.3527 19.79L98.9327 17.96C100.103 19.88 101.813 20.48 103.253 20.48C104.753 20.48 105.953 19.97 105.953 19.13C105.953 16.64 97.0127 17.33 97.0127 11.75C97.0127 8.75 99.6227 7.52 102.503 7.52C104.903 7.52 107.543 8.36 108.923 10.43L105.683 12.29C104.813 11.03 103.463 10.52 102.383 10.52C101.393 10.52 100.613 10.94 100.613 11.66C100.613 13.76 109.553 13.46 109.553 18.95C109.553 21.98 106.643 23.48 103.493 23.48Z" fill="white"/>
</svg>
