<svg width="321" height="540" viewBox="0 0 321 540" fill="none" xmlns="http://www.w3.org/2000/svg">
<path fill-rule="evenodd" clip-rule="evenodd" d="M132.781 482.967C114.356 443.605 124.138 398.28 153.867 369.789L0.000335343 41.0771L87.754 -0.00013035L122.511 74.2526L82.0085 93.2112L99.3873 130.338L129.765 116.119L164.522 190.372L134.144 204.591L199.821 344.9C244.31 334.494 291.519 356.203 311.662 399.235C334.784 448.632 313.484 507.42 264.087 530.542C214.691 553.664 155.903 532.364 132.781 482.967ZM200.283 451.369C194.611 439.252 200.591 424.479 213.64 418.371C226.688 412.264 241.863 417.134 247.534 429.251C253.206 441.367 247.226 456.14 234.178 462.248C221.129 468.356 205.954 463.485 200.283 451.369Z" fill="white"/>
</svg>
